<svg width="28" height="174" viewBox="0 0 28 174" fill="none" xmlns="http://www.w3.org/2000/svg">
<g clip-path="url(#clip0_1576_61)">
<path d="M26.1408 164.075V173.437H20.7131V164.702C20.7131 162.507 19.928 161.01 17.9634 161.01C16.4636 161.01 15.5711 162.019 15.1784 162.995C15.0352 163.344 14.9984 163.83 14.9984 164.319V173.437H9.56882C9.56882 173.437 9.64195 158.642 9.56882 157.11H14.9979V159.424C14.9869 159.441 14.9725 159.46 14.9622 159.477H14.9979V159.424C15.7192 158.313 17.0073 156.726 19.8906 156.726C23.4629 156.726 26.1408 159.06 26.1408 164.075ZM3.88927 149.239C2.03182 149.239 0.816895 150.457 0.816895 152.059C0.816895 153.627 1.99667 154.882 3.8172 154.882H3.85347C5.74689 154.882 6.92443 153.627 6.92443 152.059C6.88875 150.457 5.74689 149.239 3.88927 149.239ZM1.13936 173.437H6.56687V157.11H1.13936V173.437Z" fill="#D0D0D0"/>
</g>
<path d="M25.3367 105.558V119.881C25.3367 122.693 23.0569 124.973 20.2447 124.973H5.9216C3.10936 124.973 0.829628 122.693 0.829628 119.881V105.558C0.829628 102.746 3.10936 100.466 5.9216 100.466H20.2447C23.0569 100.466 25.3367 102.746 25.3367 105.558ZM10.4872 119.663C16.5318 121.749 22.1125 116.168 20.0269 110.124C19.3242 108.086 17.7165 106.479 15.6792 105.776C9.63445 103.69 4.05381 109.271 6.13939 115.316C6.84211 117.353 8.44979 118.961 10.4872 119.663ZM4.57943 105.309C4.67561 105.813 5.09233 106.106 5.52342 106.106C5.78578 106.106 6.05323 105.997 6.25801 105.763C6.2761 105.742 6.293 105.719 6.30796 105.696C6.51932 105.373 6.5259 104.989 6.34626 104.678C6.21911 104.458 6.01389 104.3 5.76813 104.235C5.52267 104.168 5.266 104.202 5.04597 104.33C4.73454 104.509 4.54846 104.845 4.5697 105.23C4.5712 105.256 4.57434 105.283 4.57943 105.309Z" fill="#D0D0D0"/>
<path d="M13.0832 106.766C16.3661 106.766 19.0367 109.436 19.0367 112.719C19.0367 116.002 16.3661 118.673 13.0832 118.673C9.8002 118.673 7.12962 116.002 7.12962 112.719C7.12962 109.436 9.8002 106.766 13.0832 106.766Z" fill="#D0D0D0"/>
<path d="M25.46 13.8872C25.46 7.49905 20.2754 2.31445 13.8873 2.31445C7.49908 2.31445 2.31448 7.49905 2.31448 13.8872C2.31448 19.4884 6.29552 24.1523 11.5727 25.2285V17.3591H9.25814V13.8872H11.5727V10.994C11.5727 8.76049 13.3896 6.94356 15.6232 6.94356H18.5164V10.4154H16.2018C15.5653 10.4154 15.0445 10.9362 15.0445 11.5727V13.8872H18.5164V17.3591H15.0445V25.4021C20.8888 24.8235 25.46 19.8935 25.46 13.8872Z" fill="#D0D0D0"/>
<g clip-path="url(#clip1_1576_61)">
<path d="M26.1408 55.6131C25.1687 56.0395 24.1329 56.3221 23.053 56.4594C24.1639 55.796 25.0119 54.7537 25.4105 53.4973C24.3747 54.1149 23.231 54.5511 22.0122 54.7945C21.0287 53.7473 19.6269 53.0986 18.0976 53.0986C15.1306 53.0986 12.742 55.5069 12.742 58.4591C12.742 58.8839 12.778 59.2924 12.8662 59.6812C8.41082 59.4639 4.46845 57.3285 1.82006 54.0756C1.35769 54.8778 1.08648 55.796 1.08648 56.7845C1.08648 58.6405 2.04225 60.2857 3.46693 61.2382C2.60592 61.2219 1.76124 60.9719 1.04563 60.5782C1.04563 60.5945 1.04563 60.6158 1.04563 60.637C1.04563 63.2413 2.90327 65.4044 5.33927 65.9027C4.90304 66.022 4.42761 66.0792 3.9342 66.0792C3.5911 66.0792 3.24473 66.0596 2.91961 65.9877C3.61397 68.11 5.58434 69.6703 7.92721 69.7209C6.10389 71.1473 3.78879 72.0066 1.28254 72.0066C0.843042 72.0066 0.421521 71.987 0 71.9331C2.37392 73.464 5.18732 74.3381 8.2213 74.3381C18.0829 74.3381 23.4745 66.1691 23.4745 59.0882C23.4745 58.8513 23.4663 58.6225 23.4549 58.3954C24.5185 57.6406 25.4122 56.6979 26.1408 55.6131Z" fill="#D0D0D0"/>
</g>
<defs>
<clipPath id="clip0_1576_61">
<rect width="25.3239" height="25.3239" fill="white" transform="translate(0.816895 148.676)"/>
</clipPath>
<clipPath id="clip1_1576_61">
<rect width="26.1408" height="26.1408" fill="white" transform="translate(0 50.6479)"/>
</clipPath>
</defs>
</svg>
