<svg width="790" height="201" viewBox="0 0 790 201" fill="none" xmlns="http://www.w3.org/2000/svg">
<path d="M93.274 77.4479C93.9562 78.5849 94.2973 79.4945 94.2973 80.1767C94.0699 81.9959 93.3877 83.7013 92.2508 85.2931C91.3412 86.6575 90.4316 88.0219 89.522 89.3863C88.385 90.978 87.248 92.5698 86.111 94.1616C85.2014 95.526 84.1781 97.0041 83.0412 98.5959C81.9042 100.415 80.6535 102.121 79.2891 103.712C77.9247 105.304 76.4466 106.782 74.8549 108.147C74.4001 108.601 73.9453 108.942 73.4905 109.17C73.2631 109.397 72.922 109.625 72.4672 109.852C71.1028 110.762 70.1932 111.33 69.7384 111.558C68.6014 112.012 67.5781 112.353 66.6685 112.581C65.759 112.808 64.8494 113.036 63.9398 113.263C61.4384 113.036 59.6192 112.24 58.4822 110.875C57.5726 109.511 56.8905 108.033 56.4357 106.441C56.2083 104.622 56.2083 103.03 56.4357 101.666C56.6631 100.074 56.7768 99.0507 56.7768 98.5959C57.2315 96.5493 57.6863 94.6164 58.1411 92.7972C58.5959 90.7507 59.0507 88.7041 59.5055 86.6575C59.7329 86.2027 59.9603 85.4068 60.1877 84.2698C60.4151 82.9054 60.5288 81.9958 60.5288 81.5411V81.2C59.6192 82.1095 58.937 82.9054 58.4822 83.5876C55.0713 87.9082 52.0014 92.4561 49.2726 97.2315C46.7713 101.779 44.611 106.555 42.7918 111.558C42.337 112.922 41.7685 114.286 41.0863 115.651C40.6315 116.788 40.1767 117.925 39.7219 119.062C38.1302 122.473 35.6288 124.178 32.2178 124.178H31.1945C30.5123 124.178 30.0576 124.064 29.8302 123.837C28.6932 123.382 27.8973 122.473 27.4425 121.108C26.9877 119.516 26.6466 118.379 26.4192 117.697C26.1918 116.333 25.9644 114.968 25.737 113.604C25.737 112.24 25.737 110.875 25.737 109.511C25.737 107.01 25.8507 104.736 26.0781 102.689C26.3055 100.415 26.5329 98.0274 26.7603 95.526C26.7603 94.389 26.874 93.252 27.1014 92.115C26.6466 92.5698 26.3055 92.9109 26.0781 93.1383C25.8507 93.3657 25.737 93.7068 25.737 94.1616C24.6 95.9808 23.463 97.9137 22.326 99.9602C21.1891 101.779 20.0521 103.599 18.9151 105.418L14.8219 111.558C12.3206 115.651 8.90959 116.901 4.58904 115.31C2.76986 114.627 1.63287 113.263 1.17808 111.216C0.723281 107.123 0.83698 103.371 1.51917 99.9602C1.97397 98.1411 2.42876 95.9808 2.88356 93.4794C3.33835 90.7507 3.90685 88.2493 4.58904 85.9753C5.27123 83.4739 6.06712 80.8589 6.97671 78.1301C7.43151 76.9931 7.7726 75.8561 8 74.7191C8.45479 73.3547 8.90959 72.1041 9.36438 70.9671C9.81918 70.0575 10.1603 69.2616 10.3877 68.5794C10.8425 67.6698 11.6384 67.1013 12.7753 66.8739C14.1397 66.4191 15.3904 66.3054 16.5274 66.5328C17.8918 66.5328 19.0288 67.1013 19.9384 68.2383C20.6206 68.9205 20.7343 70.1712 20.2795 71.9904C19.5973 74.0369 18.9151 76.0835 18.2329 78.1301C17.5507 80.1767 16.9822 82.3369 16.5274 84.6109C15.6178 86.8849 14.8219 89.1589 14.1397 91.4328C13.6849 93.7068 13.1164 96.0945 12.4343 98.5959H12.7753C13.4575 97.9137 13.9123 97.3452 14.1397 96.8904L23.3493 82.5643C23.8041 81.8821 24.2589 81.2 24.7137 80.5178C25.1685 79.8356 25.6233 79.2671 26.0781 78.8123C27.6699 76.5383 29.7165 75.4013 32.2178 75.4013C37.448 75.4013 39.9493 77.789 39.7219 82.5643C39.4945 84.3835 39.2672 86.089 39.0398 87.6808C38.8124 89.2726 38.585 90.978 38.3576 92.7972C38.1302 94.8438 37.9028 96.8904 37.6754 98.937C37.6754 100.756 37.448 102.803 36.9932 105.077C37.9028 103.94 38.4713 102.916 38.6987 102.007C40.9726 97.6863 43.474 93.4794 46.2028 89.3863C48.9315 85.2931 51.8877 81.4274 55.0713 77.789C56.4357 76.1972 57.9137 74.7191 59.5055 73.3547C61.7795 71.3082 64.5083 70.7397 67.6918 71.6493C70.1932 72.3315 71.4439 74.1506 71.4439 77.1068C71.2165 78.6986 70.9891 80.1767 70.7617 81.5411C70.5343 82.9054 70.1932 84.2698 69.7384 85.6342C68.8288 89.0452 68.0329 92.4561 67.3507 95.8671C66.6685 99.0507 66.1 102.348 65.6453 105.759C67.237 104.849 69.0562 103.485 71.1028 101.666C73.1494 99.6192 74.9685 97.5726 76.5603 95.526C78.3795 93.4794 79.8576 91.7739 80.9946 90.4096C82.1316 88.8178 82.7001 87.9082 82.7001 87.6808C83.1549 86.7712 83.6097 85.8616 84.0644 84.952C84.7466 84.0424 85.4288 83.0191 86.111 81.8821L88.8398 77.1068C89.2946 76.652 89.7494 76.3109 90.2042 76.0835C90.8864 75.6287 91.9097 76.0835 93.274 77.4479ZM135.674 77.4479C136.129 77.9027 136.356 78.8123 136.356 80.1767C136.356 81.7685 135.788 83.3602 134.651 84.952C133.741 86.5438 132.945 88.0219 132.263 89.3863C131.126 90.978 129.989 92.5698 128.852 94.1616C127.942 95.526 126.919 97.0041 125.782 98.5959C123.736 101.552 121.007 104.736 117.596 108.147C116.459 109.056 115.322 109.852 114.185 110.534C113.048 111.216 111.911 111.785 110.774 112.24C107.818 112.922 105.43 112.126 103.611 109.852C102.701 108.942 102.246 107.692 102.246 106.1C101.792 103.371 101.792 100.756 102.246 98.2548L102.929 93.8205L101.905 94.8438C101.223 95.9808 100.541 97.1178 99.8588 98.2548C99.1766 99.1644 98.4944 100.074 97.8122 100.984C95.993 103.258 93.9465 104.394 91.6725 104.394C88.7163 104.849 86.1012 104.053 83.8273 102.007C82.6903 100.87 81.8944 99.1644 81.4396 96.8904C81.4396 95.0712 81.5533 93.4794 81.7807 92.115C82.0081 90.5233 82.3492 88.9315 82.804 87.3397C83.0314 87.1123 84.0547 84.952 85.8739 80.8589C87.693 76.5383 90.5355 72.7863 94.4013 69.6027C94.8561 69.1479 95.1971 68.9205 95.4245 68.9205C95.8793 68.6931 96.3341 68.352 96.7889 67.8972C100.655 65.8506 104.407 65.7369 108.045 67.5561C109.864 68.4657 111.001 69.489 111.456 70.626C111.683 71.3082 112.138 71.6493 112.82 71.6493C113.275 71.6493 113.616 71.763 113.844 71.9904C114.071 71.9904 114.299 71.9904 114.526 71.9904C116.345 72.8999 117.255 74.4917 117.255 76.7657L116.231 80.8589C115.549 84.0424 114.753 87.226 113.844 90.4096C113.162 93.5931 112.366 96.7767 111.456 99.9602C111.229 100.87 111.115 101.779 111.115 102.689C111.115 103.371 111.001 104.167 110.774 105.077C111.229 104.849 111.797 104.394 112.479 103.712C114.071 102.348 115.663 100.642 117.255 98.5959C119.074 96.3219 120.666 94.2753 122.03 92.4561C123.394 90.4096 124.531 88.7041 125.441 87.3397C126.578 85.7479 127.26 84.8383 127.488 84.6109C128.397 83.0191 129.307 81.5411 130.216 80.1767C131.126 78.5849 131.922 77.2205 132.604 76.0835H133.286C133.514 76.0835 134.082 76.3109 134.992 76.7657V77.1068H135.333C135.333 77.1068 135.446 77.2205 135.674 77.4479ZM107.363 75.4013C107.818 74.4917 108.045 74.0369 108.045 74.0369C107.59 73.5821 107.022 73.1273 106.34 72.6726C105.657 72.2178 105.089 71.763 104.634 71.3082C102.815 72.2178 101.109 73.6958 99.5177 75.7424C95.6519 80.9726 92.8095 87.226 90.9903 94.5027C90.9903 96.0945 90.8766 97.3452 90.6492 98.2548C91.104 98.0274 91.4451 97.9137 91.6725 97.9137C92.1273 97.4589 92.5821 97.1178 93.0369 96.8904C94.6287 95.526 95.993 94.0479 97.13 92.4561C98.267 90.637 99.404 88.8178 100.541 86.9986C101.678 85.1794 102.815 83.2465 103.952 81.2C105.089 79.1534 106.226 77.2205 107.363 75.4013ZM199.435 77.4479C200.117 78.3575 200.344 79.2671 200.117 80.1767C200.117 81.7685 199.662 83.3602 198.753 84.952C197.843 86.5438 196.934 88.0219 196.024 89.3863C194.887 90.978 193.75 92.5698 192.613 94.1616C191.703 95.526 190.68 97.0041 189.543 98.5959C188.406 100.415 187.155 102.121 185.791 103.712C184.427 105.304 182.949 106.782 181.357 108.147C180.447 109.056 179.765 109.625 179.31 109.852C178.855 110.307 178.401 110.648 177.946 110.875C177.491 111.103 177.036 111.33 176.581 111.558C172.943 113.149 169.76 113.49 167.031 112.581C165.666 112.353 164.188 111.558 162.597 110.193C161.005 108.829 159.299 107.351 157.48 105.759C155.888 104.167 154.41 102.575 153.046 100.984C151.681 99.1644 150.544 97.6863 149.635 96.5493C149.635 96.5493 149.521 96.663 149.294 96.8904C147.929 99.3918 146.565 101.893 145.201 104.394C143.836 106.896 142.472 109.397 141.107 111.899C140.198 113.263 139.629 114.286 139.402 114.968C138.492 116.105 137.583 116.901 136.673 117.356C135.991 117.811 134.968 117.811 133.603 117.356C132.694 116.901 131.898 116.447 131.216 115.992C130.306 115.537 129.396 115.082 128.487 114.627C126.668 113.263 125.986 111.33 126.44 108.829C126.668 107.692 126.781 106.668 126.781 105.759C126.781 104.622 126.895 103.485 127.123 102.348C127.123 102.121 127.236 102.007 127.464 102.007C127.464 102.007 127.464 101.893 127.464 101.666L131.557 80.5178C132.466 75.9698 133.376 71.5356 134.286 67.215C135.423 62.6671 136.56 58.1191 137.696 53.5712C139.743 45.6123 141.903 37.767 144.177 30.0355C146.451 22.304 148.725 14.4588 150.999 6.4999C151.227 6.0451 151.34 5.704 151.34 5.4766C151.34 5.24921 151.454 5.02181 151.681 4.79442C151.681 4.33962 151.795 4.11223 152.023 4.11223C152.25 3.65743 152.591 2.97524 153.046 2.06564C153.728 1.15605 154.638 0.814957 155.775 1.04236C157.594 1.04236 159.299 1.49715 160.891 2.40675C162.71 3.08894 163.392 4.22592 162.938 5.8177V6.1588C162.483 7.52318 162.142 8.66017 161.914 9.56976C159.64 18.2109 157.366 26.852 155.092 35.4931C153.046 43.9068 150.886 52.4342 148.612 61.0753C147.475 65.6232 146.451 70.0575 145.542 74.378C144.632 78.6986 143.609 83.1328 142.472 87.6808C142.472 88.1356 142.358 88.4767 142.131 88.7041C142.131 88.7041 142.244 88.9315 142.472 89.3863C143.381 88.4767 143.95 87.6808 144.177 86.9986C146.451 83.815 148.725 80.7452 150.999 77.789C153.501 74.6054 156.116 71.6493 158.844 68.9205C162.028 65.7369 164.984 63.2356 167.713 61.4164C171.124 58.6876 174.535 58.6876 177.946 61.4164C179.992 63.463 180.561 65.5095 179.651 67.5561C179.197 68.6931 178.742 69.8301 178.287 70.9671C177.832 71.8767 177.377 72.9 176.923 74.0369C175.103 76.9931 172.943 79.7219 170.442 82.2232C167.94 84.4972 165.325 86.6575 162.597 88.7041C160.777 90.0685 159.527 91.0917 158.844 91.7739C157.707 92.6835 157.48 93.4794 158.162 94.1616C160.209 96.8904 162.255 99.2781 164.302 101.325C165.666 102.462 166.917 103.599 168.054 104.736C169.191 105.645 170.214 106.1 171.124 106.1C172.943 105.645 174.649 104.736 176.24 103.371C177.832 102.007 179.083 100.87 179.992 99.9602C180.447 99.2781 181.016 98.5959 181.698 97.9137C183.972 95.4123 185.905 92.7972 187.497 90.0685C189.088 87.3397 190.68 84.6109 192.272 81.8821L195.001 77.1068C195.228 76.652 195.569 76.3109 196.024 76.0835C196.934 75.6287 198.071 76.0835 199.435 77.4479ZM168.054 69.9438C167.827 69.9438 167.144 70.5123 166.007 71.6493C164.87 72.7863 163.62 74.0369 162.255 75.4013C160.664 76.9931 158.844 78.926 156.798 81.2C157.025 81.2 157.821 80.6315 159.186 79.4945C160.55 78.3575 161.914 77.1068 163.279 75.7424C164.643 74.378 165.78 73.1273 166.69 71.9904C167.827 70.8534 168.281 70.1712 168.054 69.9438ZM234.437 77.4479C234.892 78.3575 234.892 79.7219 234.437 81.5411C233.528 83.3602 232.845 84.6109 232.391 85.2931C231.936 85.9753 231.367 86.7712 230.685 87.6808C230.23 88.363 229.776 89.0452 229.321 89.7274C228.639 90.8644 227.956 91.8876 227.274 92.7972C226.592 93.4794 225.91 94.2753 225.228 95.1849C224.773 95.8671 223.977 96.7767 222.84 97.9137C222.385 98.3685 222.044 98.8233 221.817 99.2781L221.476 99.6192C221.021 100.074 220.793 100.301 220.793 100.301L216.7 104.394C215.563 105.531 214.199 106.782 212.607 108.147C211.015 109.511 209.31 110.648 207.491 111.558H207.15C205.33 112.695 203.397 113.263 201.351 113.263C201.123 113.263 200.896 113.377 200.669 113.604C200.441 113.604 200.214 113.604 199.986 113.604V113.263H199.645C195.325 113.263 192.028 111.444 189.754 107.805C188.617 105.304 188.048 102.575 188.048 99.6192C188.048 96.663 188.048 94.6164 188.048 93.4794C189.185 86.6575 191.459 80.7452 194.87 75.7424C198.508 70.0575 203.397 66.8739 209.537 66.1917C210.674 65.7369 211.811 65.7369 212.948 66.1917C215.222 66.8739 216.473 68.0109 216.7 69.6027C216.928 70.9671 216.928 72.2178 216.7 73.3547C215.563 76.5383 214.199 79.4945 212.607 82.2232C211.015 84.952 208.855 87.226 206.126 89.0452C204.989 89.7274 203.966 90.2959 203.056 90.7507C202.147 91.2054 201.123 91.6602 199.986 92.115C199.532 93.9342 199.077 95.8671 198.622 97.9137C198.395 99.9602 198.508 101.893 198.963 103.712C199.191 104.167 199.304 104.508 199.304 104.736C199.304 104.963 199.418 105.304 199.645 105.759C200.782 108.26 202.715 108.601 205.444 106.782C208.4 104.736 211.356 102.121 214.313 98.937C217.496 95.526 220.225 92.2287 222.499 89.0452C225 85.6342 226.365 83.7013 226.592 83.2465C226.819 82.7917 226.933 82.5643 226.933 82.5643C227.16 82.3369 227.388 81.9958 227.615 81.5411L230.685 76.7657C230.913 76.5383 231.254 76.3109 231.708 76.0835C232.845 76.0835 233.755 76.5383 234.437 77.4479ZM208.514 74.378C207.377 75.515 206.126 77.3342 204.762 79.8356C203.397 82.1095 202.488 84.1561 202.033 85.9753C203.852 84.8383 205.33 83.1328 206.467 80.8589C207.832 78.5849 208.514 76.4246 208.514 74.378ZM388.056 24.578C388.738 26.1698 388.169 26.9657 386.35 26.9657C386.35 26.9657 385.895 26.9657 384.986 26.9657C377.709 26.7383 370.319 26.7383 362.815 26.9657C355.538 27.1931 348.261 27.5342 340.984 27.989C336.664 28.2163 332.343 28.4437 328.023 28.6711C323.93 28.6711 319.723 28.8985 315.402 29.3533H313.356L309.263 44.7027C306.989 53.1164 305.056 61.5301 303.464 69.9438C301.872 78.3575 300.508 86.8849 299.371 95.526C299.371 97.8 299.257 99.5055 299.03 100.642V105.077C299.03 106.214 299.257 107.237 299.712 108.147C300.394 108.829 301.758 108.488 303.805 107.123C304.942 106.214 305.852 105.418 306.534 104.736C307.443 103.826 308.126 103.144 308.58 102.689C309.035 102.234 309.376 101.779 309.604 101.325C310.058 100.87 310.4 100.529 310.627 100.301C312.901 97.5726 314.834 94.7301 316.426 91.7739C318.017 88.8178 319.723 85.7479 321.542 82.5643L324.271 77.1068C324.498 76.652 324.953 76.3109 325.635 76.0835C326.545 75.6287 327.682 76.1972 329.046 77.789C329.728 78.4712 330.069 79.4945 330.069 80.8589C329.842 82.678 329.16 84.3835 328.023 85.9753C327.113 87.5671 326.204 89.1589 325.294 90.7507C324.157 92.5698 323.02 94.389 321.883 96.2082C320.973 97.8 319.95 99.5055 318.813 101.325C317.449 103.144 316.084 104.963 314.72 106.782C313.356 108.374 311.878 109.966 310.286 111.558C309.831 112.012 309.376 112.353 308.921 112.581C308.694 112.808 308.353 113.149 307.898 113.604L304.828 115.651C303.009 116.56 301.417 117.015 300.053 117.015H298.689H297.324H296.983C296.528 117.015 295.619 116.788 294.254 116.333C294.254 116.333 294.027 116.219 293.572 115.992C291.753 115.082 290.389 113.831 289.479 112.24C288.569 110.421 287.887 108.601 287.432 106.782C286.978 104.736 286.75 102.803 286.75 100.984C286.523 99.1644 286.409 97.5726 286.409 96.2082C286.409 94.8438 286.523 93.1383 286.75 91.0917C286.978 89.0452 287.205 87.1123 287.432 85.2931C287.66 83.0191 288.001 80.8589 288.456 78.8123V78.4712C289.593 70.5123 291.071 62.7808 292.89 55.2766C294.709 47.5451 296.869 39.8136 299.371 32.0821C299.371 31.8547 299.598 31.2862 300.053 30.3766H298.689C294.823 30.8314 290.957 31.2862 287.091 31.741C283.226 31.9684 279.36 32.3095 275.494 32.7643C269.809 33.4465 264.238 34.2424 258.78 35.152C253.095 36.0616 247.41 36.9712 241.725 37.8807C240.361 38.1081 238.997 38.3355 237.632 38.5629C236.268 38.5629 235.017 37.9944 233.88 36.8575C232.743 36.6301 232.061 35.9479 231.834 34.8109C231.151 33.6739 231.606 32.878 233.198 32.4232C238.428 31.5136 243.772 30.604 249.23 29.6944C254.46 28.7848 259.69 27.8753 264.92 26.9657C269.468 26.2835 274.13 25.715 278.905 25.2602C283.453 24.8054 288.001 24.3506 292.549 23.8958C294.141 23.6684 295.619 23.5547 296.983 23.5547C298.575 23.5547 300.28 23.5547 302.1 23.5547C303.236 20.1437 304.26 16.7328 305.169 13.3218C306.306 9.91086 307.443 6.6136 308.58 3.43003C308.58 3.20263 308.58 3.08893 308.58 3.08893C308.808 3.08893 308.921 2.97523 308.921 2.74784C309.149 2.29304 309.604 1.83825 310.286 1.38345C310.968 0.70126 312.332 0.587563 314.379 1.04236C316.88 1.49715 318.472 2.29305 319.154 3.43003C320.064 4.33962 320.291 5.13551 319.837 5.8177C319.154 8.77387 318.358 11.6163 317.449 14.3451C316.767 17.0739 316.084 19.9163 315.402 22.8725H315.743C321.883 22.6451 328.023 22.4177 334.163 22.1903C340.302 21.9629 346.442 21.7355 352.582 21.5081H378.505C380.779 21.5081 382.485 21.6218 383.621 21.8492C385.668 22.304 387.146 23.2136 388.056 24.578ZM392.333 77.4479C392.788 78.1301 393.015 79.0397 393.015 80.1767C393.015 81.9959 392.446 83.7013 391.309 85.2931C390.4 86.6575 389.604 88.0219 388.922 89.3863C387.785 90.978 386.648 92.5698 385.511 94.1616C384.601 95.526 383.578 97.0041 382.441 98.5959C381.304 100.415 380.053 102.121 378.689 103.712C377.325 105.304 375.846 106.782 374.255 108.147C373.345 109.056 372.663 109.625 372.208 109.852C370.844 110.762 369.82 111.33 369.138 111.558C366.864 112.695 364.363 113.263 361.634 113.263C359.133 113.036 357.086 111.671 355.494 109.17C354.357 107.351 353.561 105.304 353.107 103.03C352.879 100.756 352.879 98.5959 353.107 96.5493C353.334 95.4123 353.448 94.2753 353.448 93.1383C353.675 92.0013 353.789 90.8644 353.789 89.7274C354.016 88.363 354.13 87.1123 354.13 85.9753C354.357 84.6109 354.585 83.0191 354.812 81.2C353.448 82.1095 352.766 82.5643 352.766 82.5643C351.401 84.1561 350.037 85.6342 348.672 86.9986C347.308 88.363 346.057 89.8411 344.92 91.4328C342.646 94.389 340.486 97.3452 338.44 100.301C336.393 103.258 334.346 106.327 332.3 109.511C331.845 110.193 331.277 110.989 330.594 111.899C329.912 112.808 329.23 113.604 328.548 114.286C326.046 117.015 322.863 118.038 318.997 117.356C316.951 117.129 315.927 115.878 315.927 113.604C316.155 112.467 316.268 111.444 316.268 110.534C316.268 109.625 316.382 108.601 316.609 107.464C316.837 106.782 317.064 106.1 317.292 105.418C317.292 104.508 317.405 103.712 317.633 103.03L320.361 90.7507C321.498 85.5205 322.749 80.1767 324.114 74.7191C325.478 69.2616 326.729 63.8041 327.866 58.3465C329.912 49.9328 332.186 41.6328 334.688 33.4465C337.189 25.2602 339.804 16.9602 342.533 8.54647C342.988 7.63688 343.215 6.84099 343.215 6.1588C343.442 5.47661 343.783 4.68071 344.238 3.77112V3.43003C344.466 2.97524 344.92 2.40674 345.603 1.72455C346.285 0.814961 347.763 0.587563 350.037 1.04236C352.538 1.49715 353.903 2.40674 354.13 3.77112C354.357 5.13551 354.357 6.1588 354.13 6.84099C352.538 12.0711 350.946 17.3013 349.355 22.5314C347.99 27.5342 346.512 32.6506 344.92 37.8807C343.329 43.3383 341.851 48.7958 340.486 54.2534C339.122 59.7109 337.757 65.2821 336.393 70.9671C335.256 75.515 334.119 80.063 332.982 84.6109C332.072 88.9315 331.049 93.3657 329.912 97.9137C329.912 98.1411 329.798 98.5959 329.571 99.2781C330.026 98.8233 330.367 98.3685 330.594 97.9137C331.049 97.4589 331.504 97.0041 331.959 96.5493C335.142 91.7739 339.122 86.9986 343.897 82.2232C345.489 80.8589 346.967 79.6082 348.331 78.4712C349.923 77.1068 351.742 76.1972 353.789 75.7424C354.698 75.2876 355.494 75.0602 356.177 75.0602C357.086 75.0602 357.996 74.9465 358.905 74.7191C362.998 74.7191 365.045 76.652 365.045 80.5178C365.272 81.8822 365.272 83.2465 365.045 84.6109C365.045 85.9753 364.931 87.3397 364.704 88.7041C364.477 90.7507 364.249 92.7972 364.022 94.8438C363.794 96.8904 363.681 98.937 363.681 100.984C363.681 103.258 363.794 104.963 364.022 106.1C365.841 105.645 367.546 104.736 369.138 103.371C370.73 102.007 371.981 100.87 372.89 99.9602C373.345 99.2781 373.914 98.5959 374.596 97.9137C376.87 95.4123 378.689 92.9109 380.053 90.4096C381.645 87.6808 383.351 84.8383 385.17 81.8821L387.899 77.1068C388.126 76.652 388.467 76.3109 388.922 76.0835C389.831 75.6287 390.968 76.0835 392.333 77.4479ZM427.303 77.4479C427.758 78.3575 427.758 79.7219 427.303 81.5411C426.394 83.3602 425.711 84.6109 425.257 85.2931C424.802 85.9753 424.233 86.7712 423.551 87.6808C423.096 88.363 422.641 89.0452 422.187 89.7274C421.504 90.8644 420.822 91.8876 420.14 92.7972C419.458 93.4794 418.776 94.2753 418.094 95.1849C417.639 95.8671 416.843 96.7767 415.706 97.9137C415.251 98.3685 414.91 98.8233 414.683 99.2781L414.341 99.6192C413.887 100.074 413.659 100.301 413.659 100.301L409.566 104.394C408.429 105.531 407.065 106.782 405.473 108.147C403.881 109.511 402.176 110.648 400.357 111.558H400.015C398.196 112.695 396.263 113.263 394.217 113.263C393.989 113.263 393.762 113.377 393.535 113.604C393.307 113.604 393.08 113.604 392.852 113.604V113.263H392.511C388.191 113.263 384.893 111.444 382.62 107.805C381.483 105.304 380.914 102.575 380.914 99.6192C380.914 96.663 380.914 94.6164 380.914 93.4794C382.051 86.6575 384.325 80.7452 387.736 75.7424C391.374 70.0575 396.263 66.8739 402.403 66.1917C403.54 65.7369 404.677 65.7369 405.814 66.1917C408.088 66.8739 409.339 68.0109 409.566 69.6027C409.794 70.9671 409.794 72.2178 409.566 73.3547C408.429 76.5383 407.065 79.4945 405.473 82.2232C403.881 84.952 401.721 87.226 398.992 89.0452C397.855 89.7274 396.832 90.2959 395.922 90.7507C395.013 91.2054 393.989 91.6602 392.852 92.115C392.398 93.9342 391.943 95.8671 391.488 97.9137C391.261 99.9602 391.374 101.893 391.829 103.712C392.057 104.167 392.17 104.508 392.17 104.736C392.17 104.963 392.284 105.304 392.511 105.759C393.648 108.26 395.581 108.601 398.31 106.782C401.266 104.736 404.222 102.121 407.178 98.937C410.362 95.526 413.091 92.2287 415.365 89.0452C417.866 85.6342 419.231 83.7013 419.458 83.2465C419.685 82.7917 419.799 82.5643 419.799 82.5643C420.026 82.3369 420.254 81.9958 420.481 81.5411L423.551 76.7657C423.778 76.5383 424.12 76.3109 424.574 76.0835C425.711 76.0835 426.621 76.5383 427.303 77.4479ZM401.38 74.378C400.243 75.515 398.992 77.3342 397.628 79.8356C396.263 82.1095 395.354 84.1561 394.899 85.9753C396.718 84.8383 398.196 83.1328 399.333 80.8589C400.698 78.5849 401.38 76.4246 401.38 74.378ZM541.696 76.4246C542.605 77.1068 543.06 77.789 543.06 78.4712C543.06 78.926 542.946 79.2671 542.719 79.4945L538.967 84.952L506.563 126.907L505.198 128.271C503.834 129.863 502.128 131.341 500.082 132.705C498.263 134.07 496.102 134.184 493.601 133.047C492.237 132.137 491.554 130.659 491.554 128.612C491.554 126.338 491.782 123.951 492.237 121.449V120.767C493.146 117.129 494.17 113.831 495.307 110.875C496.671 107.919 497.353 106.327 497.353 106.1C497.808 104.963 498.149 103.826 498.376 102.689C498.831 101.552 499.286 100.415 499.741 99.2781C500.65 96.3219 500.764 93.252 500.082 90.0685C499.4 87.7945 498.035 86.3164 495.989 85.6342C494.852 85.4068 493.828 85.2931 492.919 85.2931C492.009 85.0657 491.1 84.7246 490.19 84.2698C488.598 83.815 486.438 83.0191 483.709 81.8821C481.208 80.5178 479.048 78.5849 477.228 76.0835C474.954 72.8999 473.817 69.0342 473.817 64.4862C473.363 58.3465 473.817 52.4342 475.182 46.7492C476.546 40.8369 478.82 34.9246 482.004 29.0122C484.278 24.6917 486.893 21.3944 489.849 19.1205C491.213 17.7561 493.033 16.8465 495.307 16.3917C501.219 15.7095 504.516 18.3246 505.198 24.2369C505.426 26.5109 505.312 28.7848 504.857 31.0588C504.402 33.3328 503.948 35.7205 503.493 38.2218C502.356 44.3616 500.764 50.3876 498.717 56.2999C496.898 62.2123 494.738 68.1246 492.237 74.0369C492.009 74.4917 491.668 75.4013 491.213 76.7657C491.668 77.4479 492.35 77.9027 493.26 78.1301C494.17 78.3575 494.965 78.6986 495.648 79.1534C496.785 79.3808 497.808 79.6082 498.717 79.8356C499.854 80.063 500.991 80.2904 502.128 80.5178C505.994 81.6548 508.837 83.5876 510.656 86.3164C512.702 88.8178 513.157 92.9109 512.02 98.5959C511.565 101.325 510.77 104.053 509.633 106.782C508.496 109.511 507.359 112.126 506.222 114.627C505.767 115.764 505.312 116.901 504.857 118.038C504.402 118.948 503.948 119.971 503.493 121.108L537.944 77.1068L538.626 76.4246C538.853 76.1972 539.649 76.0835 541.013 76.0835C541.468 76.0835 541.696 76.1972 541.696 76.4246ZM487.461 64.1451C488.371 61.6438 489.28 59.2561 490.19 56.9821C491.1 54.4808 491.896 51.9794 492.578 49.478C493.715 45.6123 494.624 41.9739 495.307 38.5629C496.216 34.9246 496.785 31.1725 497.012 27.3068C497.012 26.852 496.898 26.3972 496.671 25.9424C496.671 25.2602 496.671 24.578 496.671 23.8958C494.624 26.6246 492.805 29.9218 491.213 33.7876C489.622 37.6533 488.371 41.6328 487.461 45.726C486.552 49.5917 485.983 53.4575 485.756 57.3232C485.528 60.9616 485.756 64.0315 486.438 66.5328C486.665 66.078 486.893 65.7369 487.12 65.5095C487.348 65.0547 487.461 64.5999 487.461 64.1451ZM548.88 52.889C546.379 52.6616 545.583 51.1835 546.492 48.4547C546.947 47.3177 547.743 46.5218 548.88 46.0671C550.017 45.6123 551.154 45.6123 552.291 46.0671C552.973 46.5218 553.542 47.3177 553.996 48.4547C554.451 49.3643 554.451 50.1602 553.996 50.8424C553.542 51.752 552.973 52.2068 552.291 52.2068C551.609 52.6616 550.472 52.889 548.88 52.889ZM577.873 77.4479C578.783 78.8123 578.669 80.5178 577.532 82.5643C576.85 83.4739 576.168 84.4972 575.485 85.6342C574.121 87.9082 572.529 90.0685 570.71 92.115C569.118 94.1616 567.413 96.2082 565.594 98.2548C564.002 100.074 562.183 101.666 560.136 103.03C558.317 104.167 556.384 105.304 554.337 106.441C552.518 107.123 550.472 107.692 548.198 108.147C545.924 108.374 543.65 107.805 541.376 106.441C537.51 103.94 535.236 100.188 534.554 95.1849V93.8205V93.1383V91.0917C534.554 87.9082 534.895 85.0657 535.577 82.5643C536.259 80.063 537.055 77.9027 537.965 76.0835C538.874 73.8095 539.898 71.763 541.035 69.9438C541.49 69.7164 541.717 69.6027 541.717 69.6027C541.944 69.3753 542.285 69.1479 542.74 68.9205C544.332 67.7835 546.037 67.5561 547.857 68.2383C549.448 68.9205 550.017 70.2849 549.562 72.3315C549.562 73.9232 549.221 75.4013 548.539 76.7657C548.084 78.5849 547.629 80.4041 547.174 82.2232C546.72 84.0424 546.265 85.8616 545.81 87.6808C545.128 90.4096 545.014 93.5931 545.469 97.2315C545.469 98.3685 545.583 99.2781 545.81 99.9602C546.037 100.415 546.151 100.756 546.151 100.984C546.151 101.211 546.265 101.438 546.492 101.666C547.174 103.258 548.425 103.826 550.244 103.371C551.154 103.144 551.95 102.803 552.632 102.348C554.906 100.984 557.066 99.2781 559.113 97.2315C561.159 95.1849 562.296 93.9342 562.524 93.4794C565.707 89.6137 568.55 85.4068 571.051 80.8589L573.78 76.7657C574.007 76.5383 574.348 76.3109 574.803 76.0835C575.258 76.0835 575.713 76.1972 576.168 76.4246C576.622 76.4246 577.191 76.7657 577.873 77.4479ZM630.903 80.1767C630.675 81.9959 629.993 83.7013 628.856 85.2931C627.947 86.6575 627.037 88.0219 626.128 89.3863C624.991 90.978 623.854 92.5698 622.717 94.1616C621.58 95.526 620.443 97.0041 619.306 98.5959C618.623 99.5055 617.941 100.301 617.259 100.984C616.577 101.666 615.895 102.348 615.212 103.03C614.53 103.94 613.507 105.077 612.143 106.441L610.437 107.805L606.344 112.24L603.274 115.31C601.91 116.447 600.659 117.697 599.522 119.062C598.612 119.744 597.93 120.881 597.475 122.473C595.884 128.612 594.178 134.752 592.359 140.892C590.54 147.032 588.38 153.058 585.878 158.97C582.467 168.748 577.578 177.616 571.211 185.575L565.071 192.738C561.433 196.377 557.112 198.651 552.11 199.56C549.153 200.015 546.766 199.56 544.947 198.196C543.127 197.059 542.332 194.899 542.559 191.715C542.786 187.849 544.037 183.756 546.311 179.436C548.585 174.206 551.2 169.203 554.156 164.427C557.112 159.879 560.182 155.332 563.366 150.784C566.549 146.463 569.847 142.256 573.258 138.163C576.669 134.07 580.307 130.09 584.173 126.225C585.31 125.088 586.106 123.61 586.56 121.79C587.47 117.925 588.266 114.173 588.948 110.534C589.63 106.896 590.426 103.144 591.336 99.2781C591.563 98.8233 591.677 98.1411 591.677 97.2315C590.54 98.3685 589.858 99.1644 589.63 99.6192C587.584 101.893 585.651 104.167 583.832 106.441C582.012 108.488 580.08 110.534 578.033 112.581C575.532 115.537 572.234 116.788 568.141 116.333C564.73 116.333 562.684 114.514 562.001 110.875C562.001 108.601 562.115 106.896 562.343 105.759C562.57 103.258 563.025 100.756 563.707 98.2548C564.389 95.526 565.185 93.1383 566.095 91.0917C567.004 88.5904 568.027 86.2027 569.164 83.9287C571.666 78.926 574.508 74.4917 577.692 70.626C580.421 67.215 583.377 65.1684 586.56 64.4862C589.062 64.0315 591.222 64.2588 593.041 65.1684C595.088 65.8506 596.225 67.7835 596.452 70.9671C596.907 74.6054 596.452 78.0164 595.088 81.2C593.723 84.6109 591.336 86.2027 587.925 85.9753C586.106 85.7479 585.537 84.6109 586.219 82.5643C586.674 81.2 586.901 79.8356 586.901 78.4712C587.129 77.1068 587.356 75.6287 587.584 74.0369C587.811 73.5821 587.811 73.241 587.584 73.0137C587.584 72.5589 587.584 72.1041 587.584 71.6493C586.219 72.7863 584.627 74.9465 582.808 78.1301C581.217 81.3137 579.625 84.8383 578.033 88.7041C576.441 92.5698 575.077 96.4356 573.94 100.301C573.03 103.94 572.689 106.896 572.917 109.17C573.371 108.715 573.826 108.26 574.281 107.805C574.963 107.123 575.532 106.555 575.986 106.1C577.806 104.053 579.625 102.007 581.444 99.9602C583.491 97.6863 585.423 95.4123 587.243 93.1383C588.152 92.0013 589.062 90.8644 589.971 89.7274C590.881 88.5904 591.791 87.4534 592.7 86.3164C593.837 84.7246 595.315 83.9287 597.134 83.9287C599.181 83.7013 600.773 83.815 601.91 84.2698C603.047 84.952 603.615 86.089 603.615 87.6808C603.388 89.5 603.16 91.3191 602.933 93.1383C602.933 94.7301 602.706 96.4356 602.251 98.2548C602.023 101.438 601.341 105.304 600.204 109.852C600.886 109.17 602.251 107.692 604.297 105.418C606.344 103.144 608.277 101.097 610.096 99.2781L614.189 94.5027C614.644 94.0479 615.212 93.3657 615.895 92.4561C616.349 91.7739 616.804 91.0917 617.259 90.4096C617.941 89.5 618.51 88.5904 618.965 87.6808C619.192 87.6808 619.306 87.5671 619.306 87.3397C619.76 86.4301 620.329 85.6342 621.011 84.952C621.693 84.0424 622.262 83.0191 622.717 81.8821L625.786 77.1068C626.241 76.652 626.696 76.3109 627.151 76.0835C627.833 75.6287 628.856 76.0835 630.221 77.4479C630.903 78.5849 631.13 79.4945 630.903 80.1767ZM581.103 141.915C581.33 141.46 581.444 140.892 581.444 140.21C581.671 139.527 582.012 138.618 582.467 137.481L581.103 138.845C576.555 144.53 572.348 150.329 568.482 156.241C564.389 162.153 560.751 168.407 557.567 175.001C555.975 178.412 554.611 182.278 553.474 186.599C552.792 189.327 553.133 191.715 554.497 193.762C555.18 192.852 555.862 192.056 556.544 191.374C557.226 190.692 557.908 190.01 558.59 189.327C560.41 187.281 562.001 185.234 563.366 183.188C564.73 181.141 566.095 178.981 567.459 176.707C570.643 171.022 573.258 165.223 575.304 159.311C577.351 153.626 579.284 147.827 581.103 141.915ZM694.123 77.4479C694.578 78.1301 694.805 79.0397 694.805 80.1767C694.805 81.9959 694.237 83.7013 693.1 85.2931C692.19 86.6575 691.394 88.0219 690.712 89.3863C689.575 90.978 688.438 92.5698 687.301 94.1616C686.391 95.526 685.368 97.0041 684.231 98.5959C683.094 100.415 681.843 102.121 680.479 103.712C679.115 105.304 677.637 106.782 676.045 108.147C675.135 109.056 674.453 109.625 673.998 109.852C672.634 110.762 671.611 111.33 670.928 111.558C668.654 112.695 666.153 113.263 663.424 113.263C660.923 113.036 658.876 111.671 657.285 109.17C656.148 107.351 655.352 105.304 654.897 103.03C654.669 100.756 654.669 98.5959 654.897 96.5493C655.124 95.4123 655.238 94.2753 655.238 93.1383C655.465 92.0013 655.579 90.8644 655.579 89.7274C655.806 88.363 655.92 87.1123 655.92 85.9753C656.148 84.6109 656.375 83.0191 656.602 81.2C655.238 82.1095 654.556 82.5643 654.556 82.5643C653.191 84.1561 651.827 85.6342 650.463 86.9986C649.098 88.363 647.848 89.8411 646.711 91.4328C644.437 94.389 642.276 97.3452 640.23 100.301C638.183 103.258 636.137 106.327 634.09 109.511C633.635 110.193 633.067 110.989 632.385 111.899C631.702 112.808 631.02 113.604 630.338 114.286C627.837 117.015 624.653 118.038 620.787 117.356C618.741 117.129 617.717 115.878 617.717 113.604C617.945 112.467 618.058 111.444 618.058 110.534C618.058 109.625 618.172 108.601 618.4 107.464C618.627 106.782 618.854 106.1 619.082 105.418C619.082 104.508 619.195 103.712 619.423 103.03L622.152 90.7507C623.289 85.5205 624.539 80.1767 625.904 74.7191C627.268 69.2616 628.519 63.8041 629.656 58.3465C631.702 49.9328 633.976 41.6328 636.478 33.4465C638.979 25.2602 641.594 16.9602 644.323 8.54647C644.778 7.63688 645.005 6.84099 645.005 6.1588C645.232 5.47661 645.574 4.68071 646.028 3.77112V3.43003C646.256 2.97524 646.711 2.40674 647.393 1.72455C648.075 0.814961 649.553 0.587563 651.827 1.04236C654.328 1.49715 655.693 2.40674 655.92 3.77112C656.148 5.13551 656.148 6.1588 655.92 6.84099C654.328 12.0711 652.737 17.3013 651.145 22.5314C649.78 27.5342 648.302 32.6506 646.711 37.8807C645.119 43.3383 643.641 48.7958 642.276 54.2534C640.912 59.7109 639.548 65.2821 638.183 70.9671C637.046 75.515 635.909 80.063 634.772 84.6109C633.863 88.9315 632.839 93.3657 631.702 97.9137C631.702 98.1411 631.589 98.5959 631.361 99.2781C631.816 98.8233 632.157 98.3685 632.385 97.9137C632.839 97.4589 633.294 97.0041 633.749 96.5493C636.932 91.7739 640.912 86.9986 645.687 82.2232C647.279 80.8589 648.757 79.6082 650.122 78.4712C651.713 77.1068 653.532 76.1972 655.579 75.7424C656.489 75.2876 657.285 75.0602 657.967 75.0602C658.876 75.0602 659.786 74.9465 660.695 74.7191C664.789 74.7191 666.835 76.652 666.835 80.5178C667.063 81.8822 667.063 83.2465 666.835 84.6109C666.835 85.9753 666.722 87.3397 666.494 88.7041C666.267 90.7507 666.039 92.7972 665.812 94.8438C665.585 96.8904 665.471 98.937 665.471 100.984C665.471 103.258 665.585 104.963 665.812 106.1C667.631 105.645 669.337 104.736 670.928 103.371C672.52 102.007 673.771 100.87 674.68 99.9602C675.135 99.2781 675.704 98.5959 676.386 97.9137C678.66 95.4123 680.479 92.9109 681.843 90.4096C683.435 87.6808 685.141 84.8383 686.96 81.8821L689.689 77.1068C689.916 76.652 690.257 76.3109 690.712 76.0835C691.622 75.6287 692.759 76.0835 694.123 77.4479ZM788.444 24.578C789.126 26.1698 788.558 26.9657 786.739 26.9657C786.739 26.9657 786.284 26.9657 785.374 26.9657C778.097 26.7383 770.707 26.7383 763.203 26.9657C755.926 27.1931 748.649 27.5342 741.373 27.989C737.052 28.2163 732.732 28.4437 728.411 28.6711C724.318 28.6711 720.111 28.8985 715.791 29.3533H713.744L709.651 44.7027C707.377 53.1164 705.444 61.5301 703.852 69.9438C702.26 78.3575 700.896 86.8849 699.759 95.526C699.759 97.8 699.645 99.5055 699.418 100.642V105.077C699.418 106.214 699.645 107.237 700.1 108.147C700.782 108.829 702.147 108.488 704.193 107.123C705.33 106.214 706.24 105.418 706.922 104.736C707.832 103.826 708.514 103.144 708.969 102.689C709.423 102.234 709.764 101.779 709.992 101.325C710.447 100.87 710.788 100.529 711.015 100.301C713.289 97.5726 715.222 94.7301 716.814 91.7739C718.406 88.8178 720.111 85.7479 721.93 82.5643L724.659 77.1068C724.886 76.652 725.341 76.3109 726.023 76.0835C726.933 75.6287 728.07 76.1972 729.434 77.789C730.117 78.4712 730.458 79.4945 730.458 80.8589C730.23 82.678 729.548 84.3835 728.411 85.9753C727.501 87.5671 726.592 89.1589 725.682 90.7507C724.545 92.5698 723.408 94.389 722.271 96.2082C721.362 97.8 720.338 99.5055 719.201 101.325C717.837 103.144 716.473 104.963 715.108 106.782C713.744 108.374 712.266 109.966 710.674 111.558C710.219 112.012 709.764 112.353 709.31 112.581C709.082 112.808 708.741 113.149 708.286 113.604L705.217 115.651C703.397 116.56 701.806 117.015 700.441 117.015H699.077H697.712H697.371C696.917 117.015 696.007 116.788 694.643 116.333C694.643 116.333 694.415 116.219 693.96 115.992C692.141 115.082 690.777 113.831 689.867 112.24C688.958 110.421 688.275 108.601 687.821 106.782C687.366 104.736 687.138 102.803 687.138 100.984C686.911 99.1644 686.797 97.5726 686.797 96.2082C686.797 94.8438 686.911 93.1383 687.138 91.0917C687.366 89.0452 687.593 87.1123 687.821 85.2931C688.048 83.0191 688.389 80.8589 688.844 78.8123V78.4712C689.981 70.5123 691.459 62.7808 693.278 55.2766C695.097 47.5451 697.258 39.8136 699.759 32.0821C699.759 31.8547 699.986 31.2862 700.441 30.3766H699.077C695.211 30.8314 691.345 31.2862 687.48 31.741C683.614 31.9684 679.748 32.3095 675.882 32.7643C670.197 33.4465 664.626 34.2424 659.169 35.152C653.484 36.0616 647.799 36.9712 642.114 37.8807C640.749 38.1081 639.385 38.3355 638.021 38.5629C636.656 38.5629 635.406 37.9944 634.269 36.8575C633.132 36.6301 632.449 35.9479 632.222 34.8109C631.54 33.6739 631.995 32.878 633.586 32.4232C638.816 31.5136 644.16 30.604 649.618 29.6944C654.848 28.7848 660.078 27.8753 665.308 26.9657C669.856 26.2835 674.518 25.715 679.293 25.2602C683.841 24.8054 688.389 24.3506 692.937 23.8958C694.529 23.6684 696.007 23.5547 697.371 23.5547C698.963 23.5547 700.669 23.5547 702.488 23.5547C703.625 20.1437 704.648 16.7328 705.558 13.3218C706.695 9.91086 707.832 6.6136 708.969 3.43003C708.969 3.20263 708.969 3.08893 708.969 3.08893C709.196 3.08893 709.31 2.97523 709.31 2.74784C709.537 2.29304 709.992 1.83825 710.674 1.38345C711.356 0.70126 712.721 0.587563 714.767 1.04236C717.269 1.49715 718.86 2.29305 719.543 3.43003C720.452 4.33962 720.68 5.13551 720.225 5.8177C719.543 8.77387 718.747 11.6163 717.837 14.3451C717.155 17.0739 716.473 19.9163 715.791 22.8725H716.132C722.271 22.6451 728.411 22.4177 734.551 22.1903C740.691 21.9629 746.83 21.7355 752.97 21.5081H778.893C781.167 21.5081 782.873 21.6218 784.01 21.8492C786.056 22.304 787.534 23.2136 788.444 24.578Z" fill="#FFC700"/>
</svg>
