<svg width="137" height="71" viewBox="0 0 137 71" fill="none" xmlns="http://www.w3.org/2000/svg">
<path d="M54.4492 36.6C54.8492 37.2667 55.0492 37.8 55.0492 38.2C54.9159 39.2667 54.5159 40.2667 53.8492 41.2C53.3159 42 52.7826 42.8 52.2492 43.6C51.5826 44.5333 50.9159 45.4667 50.2492 46.4C49.7159 47.2 49.1159 48.0667 48.4492 49C47.7826 50.0667 47.0492 51.0667 46.2492 52C45.4492 52.9333 44.5826 53.8 43.6492 54.6C43.3826 54.8667 43.1159 55.0667 42.8492 55.2C42.7159 55.3333 42.5159 55.4667 42.2492 55.6C41.4492 56.1333 40.9159 56.4667 40.6492 56.6C39.9826 56.8667 39.3826 57.0667 38.8492 57.2C38.3159 57.3333 37.7826 57.4667 37.2492 57.6C35.7826 57.4667 34.7159 57 34.0492 56.2C33.5159 55.4 33.1159 54.5333 32.8492 53.6C32.7159 52.5333 32.7159 51.6 32.8492 50.8C32.9826 49.8667 33.0492 49.2667 33.0492 49C33.3159 47.8 33.5826 46.6667 33.8492 45.6C34.1159 44.4 34.3826 43.2 34.6492 42C34.7826 41.7333 34.9159 41.2667 35.0492 40.6C35.1826 39.8 35.2492 39.2667 35.2492 39V38.8C34.7159 39.3333 34.3159 39.8 34.0492 40.2C32.0492 42.7333 30.2492 45.4 28.6492 48.2C27.1826 50.8667 25.9159 53.6667 24.8492 56.6C24.5826 57.4 24.2492 58.2 23.8492 59C23.5826 59.6667 23.3159 60.3333 23.0492 61C22.1159 63 20.6492 64 18.6492 64H18.0492C17.6492 64 17.3826 63.9333 17.2492 63.8C16.5826 63.5333 16.1159 63 15.8492 62.2C15.5826 61.2667 15.3826 60.6 15.2492 60.2C15.1159 59.4 14.9826 58.6 14.8492 57.8C14.8492 57 14.8492 56.2 14.8492 55.4C14.8492 53.9333 14.9159 52.6 15.0492 51.4C15.1826 50.0667 15.3159 48.6667 15.4492 47.2C15.4492 46.5333 15.5159 45.8667 15.6492 45.2C15.3826 45.4667 15.1826 45.6667 15.0492 45.8C14.9159 45.9333 14.8492 46.1333 14.8492 46.4C14.1826 47.4667 13.5159 48.6 12.8492 49.8C12.1826 50.8667 11.5159 51.9333 10.8492 53L8.44922 56.6C6.98255 59 4.98255 59.7333 2.44922 58.8C1.38255 58.4 0.715885 57.6 0.449218 56.4C0.182552 54 0.249218 51.8 0.649218 49.8C0.915885 48.7333 1.18255 47.4667 1.44922 46C1.71589 44.4 2.04922 42.9333 2.44922 41.6C2.84922 40.1333 3.31589 38.6 3.84922 37C4.11589 36.3333 4.31589 35.6667 4.44922 35C4.71589 34.2 4.98255 33.4667 5.24922 32.8C5.51589 32.2667 5.71589 31.8 5.84922 31.4C6.11589 30.8667 6.58255 30.5333 7.24922 30.4C8.04922 30.1333 8.78255 30.0667 9.44922 30.2C10.2492 30.2 10.9159 30.5333 11.4492 31.2C11.8492 31.6 11.9159 32.3333 11.6492 33.4C11.2492 34.6 10.8492 35.8 10.4492 37C10.0492 38.2 9.71589 39.4667 9.44922 40.8C8.91589 42.1333 8.44922 43.4667 8.04922 44.8C7.78255 46.1333 7.44922 47.5333 7.04922 49H7.24922C7.64922 48.6 7.91589 48.2667 8.04922 48L13.4492 39.6C13.7159 39.2 13.9826 38.8 14.2492 38.4C14.5159 38 14.7826 37.6667 15.0492 37.4C15.9826 36.0667 17.1826 35.4 18.6492 35.4C21.7159 35.4 23.1826 36.8 23.0492 39.6C22.9159 40.6667 22.7826 41.6667 22.6492 42.6C22.5159 43.5333 22.3826 44.5333 22.2492 45.6C22.1159 46.8 21.9826 48 21.8492 49.2C21.8492 50.2667 21.7159 51.4667 21.4492 52.8C21.9826 52.1333 22.3159 51.5333 22.4492 51C23.7826 48.4667 25.2492 46 26.8492 43.6C28.4492 41.2 30.1826 38.9333 32.0492 36.8C32.8492 35.8667 33.7159 35 34.6492 34.2C35.9826 33 37.5826 32.6667 39.4492 33.2C40.9159 33.6 41.6492 34.6667 41.6492 36.4C41.5159 37.3333 41.3826 38.2 41.2492 39C41.1159 39.8 40.9159 40.6 40.6492 41.4C40.1159 43.4 39.6492 45.4 39.2492 47.4C38.8492 49.2667 38.5159 51.2 38.2492 53.2C39.1826 52.6667 40.2492 51.8667 41.4492 50.8C42.6492 49.6 43.7159 48.4 44.6492 47.2C45.7159 46 46.5826 45 47.2492 44.2C47.9159 43.2667 48.2492 42.7333 48.2492 42.6C48.5159 42.0667 48.7826 41.5333 49.0492 41C49.4492 40.4667 49.8492 39.8667 50.2492 39.2L51.8492 36.4C52.1159 36.1333 52.3826 35.9333 52.6492 35.8C53.0492 35.5333 53.6492 35.8 54.4492 36.6ZM80.9102 36C81.1768 36.1333 81.5102 36.4 81.9102 36.8C82.4435 37.2 82.5102 37.6667 82.1102 38.2C81.9768 38.4667 81.5102 39 80.7102 39.8C79.9102 40.4667 78.8435 41.2667 77.5102 42.2C76.1768 43.1333 74.7102 44.0667 73.1102 45C71.5102 45.9333 69.8435 46.6 68.1102 47C68.1102 47.2667 68.0435 47.4667 67.9102 47.6C67.9102 47.6 67.9102 47.7333 67.9102 48C67.9102 48 67.8435 48.0667 67.7102 48.2C66.9102 51.1333 65.3768 53.9333 63.1102 56.6C62.4435 57.2667 61.7768 57.8667 61.1102 58.4C60.4435 58.9333 59.7102 59.4 58.9102 59.8C57.0435 60.6 55.0435 60.8667 52.9102 60.6C49.7102 60.2 47.7102 58.3333 46.9102 55C46.3768 52.8667 46.4435 50.3333 47.1102 47.4C47.7768 44.7333 48.6435 42.2 49.7102 39.8C50.7768 37.4 52.1102 35.0667 53.7102 32.8C54.1102 32.2667 54.5102 31.8 54.9102 31.4C55.3102 30.8667 55.7102 30.4 56.1102 30C57.3102 29.0667 58.6435 28.8 60.1102 29.2C61.3102 29.6 61.5102 30.2 60.7102 31C60.4435 31.4 60.1768 31.8 59.9102 32.2C59.6435 32.6 59.3768 33 59.1102 33.4C59.3768 33.4 59.5102 33.4 59.5102 33.4C59.6435 33.2667 59.7768 33.2 59.9102 33.2C62.8435 31.8667 65.1768 32.5333 66.9102 35.2C67.7102 36.5333 68.2435 38.2667 68.5102 40.4C68.5102 40.8 68.5102 41.2 68.5102 41.6C68.6435 42 68.7102 42.4 68.7102 42.8V43.2C70.1768 42.6667 71.5102 42 72.7102 41.2C74.0435 40.4 75.2435 39.6 76.3102 38.8C77.5102 37.8667 78.6435 36.8667 79.7102 35.8H80.1102C80.2435 35.8 80.3768 35.8667 80.5102 36C80.6435 36 80.7768 36 80.9102 36ZM54.7102 58C57.2435 56.9333 59.1102 55.4667 60.3102 53.6C61.5102 51.6 62.5102 49.4667 63.3102 47.2C61.5768 46.6667 60.1102 45.9333 58.9102 45C57.8435 44.3333 56.9768 43.4 56.3102 42.2C55.6435 41 55.6435 39.5333 56.3102 37.8L55.5102 40.2C55.2435 40.8667 54.9768 41.5333 54.7102 42.2C54.5768 42.8667 54.4435 43.4 54.3102 43.8C54.0435 44.6 53.7768 45.4 53.5102 46.2C53.3768 47 53.1768 47.8 52.9102 48.6C52.6435 49.6667 52.4435 50.6667 52.3102 51.6C52.3102 52.4 52.4435 53.3333 52.7102 54.4C52.8435 55.0667 53.0435 55.7333 53.3102 56.4C53.5768 56.9333 54.0435 57.4667 54.7102 58ZM63.9102 43.8C64.3102 41.2667 64.1768 39.1333 63.5102 37.4C63.3768 36.8667 63.1768 36.3333 62.9102 35.8C62.3768 34.7333 61.8435 34.1333 61.3102 34C61.0435 34 60.7102 34.4 60.3102 35.2C60.0435 36 59.9102 36.9333 59.9102 38C59.9102 40.2667 60.4435 41.8 61.5102 42.6C62.5768 43.2667 63.3102 43.6667 63.7102 43.8H63.9102ZM114.645 36C115.178 36.4 115.445 36.8 115.445 37.2C115.445 37.4667 115.378 37.6667 115.245 37.8L113.045 41L94.0445 65.6L93.2445 66.4C92.4445 67.3333 91.4445 68.2 90.2445 69C89.1779 69.8 87.9112 69.8667 86.4445 69.2C85.6445 68.6667 85.2445 67.8 85.2445 66.6C85.2445 65.2667 85.3779 63.8667 85.6445 62.4V62C86.1779 59.8667 86.7779 57.9333 87.4445 56.2C88.2445 54.4667 88.6445 53.5333 88.6445 53.4C88.9112 52.7333 89.1112 52.0667 89.2445 51.4C89.5112 50.7333 89.7779 50.0667 90.0445 49.4C90.5779 47.6667 90.6445 45.8667 90.2445 44C89.8445 42.6667 89.0445 41.8 87.8445 41.4C87.1779 41.2667 86.5779 41.2 86.0445 41.2C85.5112 41.0667 84.9779 40.8667 84.4445 40.6C83.5112 40.3333 82.2445 39.8667 80.6445 39.2C79.1779 38.4 77.9112 37.2667 76.8445 35.8C75.5112 33.9333 74.8445 31.6667 74.8445 29C74.5779 25.4 74.8445 21.9333 75.6445 18.6C76.4445 15.1333 77.7779 11.6667 79.6445 8.2C80.9779 5.66666 82.5112 3.73333 84.2445 2.4C85.0445 1.6 86.1112 1.06666 87.4445 0.799995C90.9112 0.399996 92.8445 1.93333 93.2445 5.4C93.3779 6.73333 93.3112 8.06667 93.0445 9.4C92.7779 10.7333 92.5112 12.1333 92.2445 13.6C91.5779 17.2 90.6445 20.7333 89.4445 24.2C88.3779 27.6667 87.1112 31.1333 85.6445 34.6C85.5112 34.8667 85.3112 35.4 85.0445 36.2C85.3112 36.6 85.7112 36.8667 86.2445 37C86.7779 37.1333 87.2445 37.3333 87.6445 37.6C88.3112 37.7333 88.9112 37.8667 89.4445 38C90.1112 38.1333 90.7779 38.2667 91.4445 38.4C93.7112 39.0667 95.3779 40.2 96.4445 41.8C97.6445 43.2667 97.9112 45.6667 97.2445 49C96.9779 50.6 96.5112 52.2 95.8445 53.8C95.1779 55.4 94.5112 56.9333 93.8445 58.4C93.5779 59.0667 93.3112 59.7333 93.0445 60.4C92.7779 60.9333 92.5112 61.5333 92.2445 62.2L112.445 36.4L112.845 36C112.978 35.8667 113.445 35.8 114.245 35.8C114.511 35.8 114.645 35.8667 114.645 36ZM82.8445 28.8C83.3779 27.3333 83.9112 25.9333 84.4445 24.6C84.9779 23.1333 85.4445 21.6667 85.8445 20.2C86.5112 17.9333 87.0445 15.8 87.4445 13.8C87.9779 11.6667 88.3112 9.46667 88.4445 7.2C88.4445 6.93333 88.3779 6.66666 88.2445 6.39999C88.2445 6 88.2445 5.6 88.2445 5.2C87.0445 6.8 85.9779 8.73333 85.0445 11C84.1112 13.2667 83.3779 15.6 82.8445 18C82.3112 20.2667 81.9779 22.5333 81.8445 24.8C81.7112 26.9333 81.8445 28.7333 82.2445 30.2C82.3779 29.9333 82.5112 29.7333 82.6445 29.6C82.7779 29.3333 82.8445 29.0667 82.8445 28.8ZM135.657 36.6C135.924 37.1333 135.924 37.9333 135.657 39C135.124 40.0667 134.724 40.8 134.457 41.2C134.19 41.6 133.857 42.0667 133.457 42.6C133.19 43 132.924 43.4 132.657 43.8C132.257 44.4667 131.857 45.0667 131.457 45.6C131.057 46 130.657 46.4667 130.257 47C129.99 47.4 129.524 47.9333 128.857 48.6C128.59 48.8667 128.39 49.1333 128.257 49.4L128.057 49.6C127.79 49.8667 127.657 50 127.657 50L125.257 52.4C124.59 53.0667 123.79 53.8 122.857 54.6C121.924 55.4 120.924 56.0667 119.857 56.6H119.657C118.59 57.2667 117.457 57.6 116.257 57.6C116.124 57.6 115.99 57.6667 115.857 57.8C115.724 57.8 115.59 57.8 115.457 57.8V57.6H115.257C112.724 57.6 110.79 56.5333 109.457 54.4C108.79 52.9333 108.457 51.3333 108.457 49.6C108.457 47.8667 108.457 46.6667 108.457 46C109.124 42 110.457 38.5333 112.457 35.6C114.59 32.2667 117.457 30.4 121.057 30C121.724 29.7333 122.39 29.7333 123.057 30C124.39 30.4 125.124 31.0667 125.257 32C125.39 32.8 125.39 33.5333 125.257 34.2C124.59 36.0667 123.79 37.8 122.857 39.4C121.924 41 120.657 42.3333 119.057 43.4C118.39 43.8 117.79 44.1333 117.257 44.4C116.724 44.6667 116.124 44.9333 115.457 45.2C115.19 46.2667 114.924 47.4 114.657 48.6C114.524 49.8 114.59 50.9333 114.857 52C114.99 52.2667 115.057 52.4667 115.057 52.6C115.057 52.7333 115.124 52.9333 115.257 53.2C115.924 54.6667 117.057 54.8667 118.657 53.8C120.39 52.6 122.124 51.0667 123.857 49.2C125.724 47.2 127.324 45.2667 128.657 43.4C130.124 41.4 130.924 40.2667 131.057 40C131.19 39.7333 131.257 39.6 131.257 39.6C131.39 39.4667 131.524 39.2667 131.657 39L133.457 36.2C133.59 36.0667 133.79 35.9333 134.057 35.8C134.724 35.8 135.257 36.0667 135.657 36.6ZM120.457 34.8C119.79 35.4667 119.057 36.5333 118.257 38C117.457 39.3333 116.924 40.5333 116.657 41.6C117.724 40.9333 118.59 39.9333 119.257 38.6C120.057 37.2667 120.457 36 120.457 34.8Z" fill="#0CA296"/>
</svg>
