<svg width="131" height="127" viewBox="0 0 131 127" fill="none" xmlns="http://www.w3.org/2000/svg">
<path d="M92.332 14.6C92.732 15.5333 92.3987 16 91.332 16C91.332 16 91.0654 16 90.532 16C86.2654 15.8667 81.932 15.8667 77.532 16C73.2654 16.1333 68.9987 16.3333 64.732 16.6C62.1987 16.7333 59.6654 16.8667 57.132 17C54.732 17 52.2654 17.1333 49.732 17.4H48.532L46.132 26.4C44.7987 31.3333 43.6654 36.2667 42.732 41.2C41.7987 46.1333 40.9987 51.1333 40.332 56.2C40.332 57.5333 40.2654 58.5333 40.132 59.2V61.8C40.132 62.4667 40.2654 63.0667 40.532 63.6C40.932 64 41.732 63.8 42.932 63C43.5987 62.4667 44.132 62 44.532 61.6C45.0654 61.0667 45.4654 60.6667 45.732 60.4C45.9987 60.1333 46.1987 59.8667 46.332 59.6C46.5987 59.3333 46.7987 59.1333 46.932 59C48.2654 57.4 49.3987 55.7333 50.332 54C51.2654 52.2667 52.2654 50.4667 53.332 48.6L54.932 45.4C55.0654 45.1333 55.332 44.9333 55.732 44.8C56.2654 44.5333 56.932 44.8667 57.732 45.8C58.132 46.2 58.332 46.8 58.332 47.6C58.1987 48.6667 57.7987 49.6667 57.132 50.6C56.5987 51.5333 56.0654 52.4667 55.532 53.4C54.8654 54.4667 54.1987 55.5333 53.532 56.6C52.9987 57.5333 52.3987 58.5333 51.732 59.6C50.932 60.6667 50.132 61.7333 49.332 62.8C48.532 63.7333 47.6654 64.6667 46.732 65.6C46.4654 65.8667 46.1987 66.0667 45.932 66.2C45.7987 66.3333 45.5987 66.5333 45.332 66.8L43.532 68C42.4654 68.5333 41.532 68.8 40.732 68.8H39.932H39.132H38.932C38.6654 68.8 38.132 68.6667 37.332 68.4C37.332 68.4 37.1987 68.3333 36.932 68.2C35.8654 67.6667 35.0654 66.9333 34.532 66C33.9987 64.9333 33.5987 63.8667 33.332 62.8C33.0654 61.6 32.932 60.4667 32.932 59.4C32.7987 58.3333 32.732 57.4 32.732 56.6C32.732 55.8 32.7987 54.8 32.932 53.6C33.0654 52.4 33.1987 51.2667 33.332 50.2C33.4654 48.8667 33.6654 47.6 33.932 46.4V46.2C34.5987 41.5333 35.4654 37 36.532 32.6C37.5987 28.0667 38.8654 23.5333 40.332 19C40.332 18.8667 40.4654 18.5333 40.732 18H39.932C37.6654 18.2667 35.3987 18.5333 33.132 18.8C30.8654 18.9333 28.5987 19.1333 26.332 19.4C22.9987 19.8 19.732 20.2667 16.532 20.8C13.1987 21.3333 9.86536 21.8667 6.53203 22.4C5.73203 22.5333 4.93203 22.6667 4.13203 22.8C3.33203 22.8 2.5987 22.4667 1.93203 21.8C1.26536 21.6667 0.865362 21.2667 0.732029 20.6C0.33203 19.9333 0.598697 19.4667 1.53203 19.2C4.5987 18.6667 7.73203 18.1333 10.932 17.6C13.9987 17.0667 17.0654 16.5333 20.132 16C22.7987 15.6 25.532 15.2667 28.332 15C30.9987 14.7333 33.6654 14.4667 36.332 14.2C37.2654 14.0667 38.132 14 38.932 14C39.8654 14 40.8654 14 41.932 14C42.5987 12 43.1987 10 43.732 7.99999C44.3987 6 45.0654 4.06666 45.732 2.2C45.732 2.06666 45.732 1.99999 45.732 1.99999C45.8654 1.99999 45.932 1.93333 45.932 1.8C46.0654 1.53333 46.332 1.26666 46.732 0.999995C47.132 0.599996 47.932 0.53333 49.132 0.799998C50.5987 1.06666 51.532 1.53333 51.932 2.2C52.4654 2.73333 52.5987 3.2 52.332 3.6C51.932 5.33333 51.4654 7 50.932 8.6C50.532 10.2 50.132 11.8667 49.732 13.6H49.932C53.532 13.4667 57.132 13.3333 60.732 13.2C64.332 13.0667 67.932 12.9333 71.532 12.8H86.732C88.0654 12.8 89.0654 12.8667 89.732 13C90.932 13.2667 91.7987 13.8 92.332 14.6ZM83.8398 45C84.1065 45.1333 84.4398 45.4 84.8398 45.8C85.3732 46.2 85.4398 46.6667 85.0398 47.2C84.9065 47.4667 84.4398 48 83.6398 48.8C82.8398 49.4667 81.7732 50.2667 80.4398 51.2C79.1065 52.1333 77.6398 53.0667 76.0398 54C74.4398 54.9333 72.7732 55.6 71.0398 56C71.0398 56.2667 70.9732 56.4667 70.8398 56.6C70.8398 56.6 70.8398 56.7333 70.8398 57C70.8398 57 70.7732 57.0667 70.6398 57.2C69.8398 60.1333 68.3065 62.9333 66.0398 65.6C65.3732 66.2667 64.7065 66.8667 64.0398 67.4C63.3732 67.9333 62.6398 68.4 61.8398 68.8C59.9732 69.6 57.9732 69.8667 55.8398 69.6C52.6398 69.2 50.6398 67.3333 49.8398 64C49.3065 61.8667 49.3732 59.3333 50.0398 56.4C50.7065 53.7333 51.5732 51.2 52.6398 48.8C53.7065 46.4 55.0398 44.0667 56.6398 41.8C57.0398 41.2667 57.4398 40.8 57.8398 40.4C58.2398 39.8667 58.6398 39.4 59.0398 39C60.2398 38.0667 61.5732 37.8 63.0398 38.2C64.2398 38.6 64.4398 39.2 63.6398 40C63.3732 40.4 63.1065 40.8 62.8398 41.2C62.5732 41.6 62.3065 42 62.0398 42.4C62.3065 42.4 62.4398 42.4 62.4398 42.4C62.5732 42.2667 62.7065 42.2 62.8398 42.2C65.7732 40.8667 68.1065 41.5333 69.8398 44.2C70.6398 45.5333 71.1732 47.2667 71.4398 49.4C71.4398 49.8 71.4398 50.2 71.4398 50.6C71.5732 51 71.6398 51.4 71.6398 51.8V52.2C73.1065 51.6667 74.4398 51 75.6398 50.2C76.9732 49.4 78.1732 48.6 79.2398 47.8C80.4398 46.8667 81.5732 45.8667 82.6398 44.8H83.0398C83.1732 44.8 83.3065 44.8667 83.4398 45C83.5732 45 83.7065 45 83.8398 45ZM57.6398 67C60.1732 65.9333 62.0398 64.4667 63.2398 62.6C64.4398 60.6 65.4398 58.4667 66.2398 56.2C64.5065 55.6667 63.0398 54.9333 61.8398 54C60.7732 53.3333 59.9065 52.4 59.2398 51.2C58.5732 50 58.5732 48.5333 59.2398 46.8L58.4398 49.2C58.1732 49.8667 57.9065 50.5333 57.6398 51.2C57.5065 51.8667 57.3732 52.4 57.2398 52.8C56.9732 53.6 56.7065 54.4 56.4398 55.2C56.3065 56 56.1065 56.8 55.8398 57.6C55.5732 58.6667 55.3732 59.6667 55.2398 60.6C55.2398 61.4 55.3732 62.3333 55.6398 63.4C55.7732 64.0667 55.9732 64.7333 56.2398 65.4C56.5065 65.9333 56.9732 66.4667 57.6398 67ZM66.8398 52.8C67.2398 50.2667 67.1065 48.1333 66.4398 46.4C66.3065 45.8667 66.1065 45.3333 65.8398 44.8C65.3065 43.7333 64.7732 43.1333 64.2398 43C63.9732 43 63.6398 43.4 63.2398 44.2C62.9732 45 62.8398 45.9333 62.8398 47C62.8398 49.2667 63.3732 50.8 64.4398 51.6C65.5065 52.2667 66.2398 52.6667 66.6398 52.8H66.8398ZM128.574 44.8C129.108 45.0667 129.574 45.3333 129.974 45.6C130.641 46.2667 130.774 47.0667 130.374 48C130.108 48.6667 129.241 49.6 127.774 50.8C126.308 52 124.574 53.2667 122.574 54.6C120.574 55.9333 118.374 57.2667 115.974 58.6C113.708 59.9333 111.574 61 109.574 61.8C109.441 61.9333 109.241 62 108.974 62C108.574 62.2667 108.108 62.6667 107.574 63.2C106.108 64.6667 104.574 66.0667 102.974 67.4C101.374 68.6 99.6409 69.5333 97.7742 70.2C96.0409 70.8667 94.5076 71.2667 93.1742 71.4C91.7076 71.6667 90.2409 71.2667 88.7742 70.2C88.6409 70.6 88.4409 71.0667 88.1742 71.6C85.5076 77.4667 83.1742 83.3333 81.1742 89.2C79.0409 95.2 77.0409 101.2 75.1742 107.2C74.5076 109.467 73.8409 111.667 73.1742 113.8C72.3742 115.933 71.6409 118.067 70.9742 120.2L70.3742 122C69.1742 124.933 67.1076 126 64.1742 125.2C62.8409 125.067 62.2409 124.267 62.3742 122.8C62.5076 121.6 62.6409 120.4 62.7742 119.2C62.9076 118 63.1076 116.733 63.3742 115.4C64.4409 108.333 65.9076 101.333 67.7742 94.4C69.5076 87.6 71.3742 80.7333 73.3742 73.8C74.1742 71.1333 75.0409 68.4 75.9742 65.6C76.7742 62.8 77.5742 60.0667 78.3742 57.4L80.5742 50C80.8409 49.6 81.0409 49.2 81.1742 48.8C81.1742 48.2667 81.3076 47.8 81.5742 47.4L82.1742 45L83.3742 42C83.9076 41.2 84.7076 40.6667 85.7742 40.4C86.9742 40.1333 87.9076 40.3333 88.5742 41C88.9742 41.4 89.0409 42 88.7742 42.8C88.2409 45.0667 87.7076 47.3333 87.1742 49.6C86.7742 51.7333 86.2409 53.9333 85.5742 56.2C84.3742 60.4667 83.2409 64.7333 82.1742 69C80.9742 73.1333 79.7742 77.3333 78.5742 81.6C78.4409 82 78.4409 82.3333 78.5742 82.6C78.7076 82.3333 78.8409 82 78.9742 81.6C79.1076 81.3333 79.2409 81.0667 79.3742 80.8C81.2409 76.2667 83.1076 71.8667 84.9742 67.6C86.8409 63.2 89.0409 58.9333 91.5742 54.8C92.6409 52.9333 93.7076 51.1333 94.7742 49.4C95.8409 47.6667 97.1076 46.0667 98.5742 44.6C99.2409 43.9333 99.9076 43.3333 100.574 42.8C101.241 42.1333 101.908 41.4667 102.574 40.8C104.174 39.4667 106.241 38.9333 108.774 39.2C112.508 39.6 114.508 41.8667 114.774 46C114.774 48.6667 114.241 51.4667 113.174 54.4C112.908 54.9333 112.708 55.4 112.574 55.8C113.241 55.4 114.308 54.8 115.774 54C117.241 53.0667 118.774 52.0667 120.374 51C122.108 49.9333 123.708 48.8667 125.174 47.8C126.774 46.6 127.908 45.6 128.574 44.8ZM107.974 49.6C108.508 47.8667 108.708 46.0667 108.574 44.2C108.574 43.4 108.308 42.6667 107.774 42C107.374 42.2667 106.908 42.6 106.374 43C105.974 43.2667 105.641 43.5333 105.374 43.8C104.441 44.7333 103.574 45.6667 102.774 46.6C101.974 47.4 101.174 48.2667 100.374 49.2C98.5076 51.8667 96.7742 54.6 95.1742 57.4C93.7076 60.0667 92.2409 62.8667 90.7742 65.8C90.7742 66.0667 90.7076 66.3333 90.5742 66.6C91.1076 66.3333 91.5742 66.0667 91.9742 65.8C92.3742 65.5333 92.7742 65.2667 93.1742 65C94.6409 64.3333 95.9742 63.6667 97.1742 63C98.5076 62.2 99.9076 61.4667 101.374 60.8C101.908 60.6667 102.441 60.3333 102.974 59.8C104.041 58.2 104.974 56.6 105.774 55C106.708 53.2667 107.441 51.4667 107.974 49.6Z" fill="#FFD600"/>
</svg>
